<svg width="50" height="36" viewBox="0 0 50 36" fill="none" xmlns="http://www.w3.org/2000/svg">
<path d="M10.605 19.6352C9.28142 20.9588 9.28142 23.1112 10.605 24.4347C11.9285 25.7583 14.0809 25.7583 15.4045 24.4347C17.9713 21.8679 21.3804 20.4508 25.0168 20.4508C28.6399 20.4508 32.049 21.8679 34.6292 24.4347C35.9528 25.7583 38.1052 25.7583 39.4287 24.4347C41.14 22.7235 40.0972 20.2903 39.4287 19.6352C35.5784 15.7849 30.4581 13.6726 25.0168 13.6726C19.5756 13.6726 14.4553 15.7849 10.605 19.6352Z" fill="white"/>
<path d="M0.992655 10.023C-0.330885 11.3465 -0.330885 13.4989 0.992655 14.8225C2.3162 16.146 4.46862 16.146 5.79216 14.8225C16.3938 4.22078 33.64 4.22078 44.2283 14.8225C45.5518 16.146 47.7043 16.146 49.0278 14.8225C50.8326 13.0176 49.6963 10.678 49.0278 10.023C35.7924 -3.2258 14.2414 -3.2258 0.992655 10.023Z" fill="white"/>
<ellipse cx="25.6126" cy="30.9357" rx="4.97816" ry="4.97816" transform="rotate(-90 25.6126 30.9357)" fill="white"/>
</svg>
