<svg width="31" height="44" viewBox="0 0 31 44" fill="none" xmlns="http://www.w3.org/2000/svg">
<path d="M23.6923 15.231C23.6923 10.5653 19.8965 6.76945 15.2308 6.76945C10.5651 6.76945 6.76923 10.5653 6.76923 15.231C6.76923 19.8967 10.5651 23.6925 15.2308 23.6925C19.8965 23.6925 23.6923 19.8967 23.6923 15.231ZM10.1538 15.231C10.1538 12.4319 12.4317 10.1541 15.2308 10.1541C18.0298 10.1541 20.3077 12.4319 20.3077 15.231C20.3077 18.0301 18.0298 20.3079 15.2308 20.3079C12.4317 20.3079 10.1538 18.0301 10.1538 15.231Z" fill="#AB9AFF"/>
<path d="M27.9231 40.6154H27.0769V38.9231C27.0769 36.124 24.7991 33.8462 22 33.8462V28.8538C27.0058 26.356 30.4615 21.1945 30.4615 15.2308C30.4615 6.83354 23.6297 0 15.2308 0C6.83185 0 0 6.83354 0 15.2308C0 21.1962 3.45569 26.356 8.46154 28.8538V33.8462C5.66246 33.8462 3.38462 36.124 3.38462 38.9231V40.6154H2.53846C2.31405 40.6154 2.09882 40.7045 1.94014 40.8632C1.78146 41.0219 1.69231 41.2371 1.69231 41.4615V43.1538C1.69231 43.3783 1.78146 43.5935 1.94014 43.7522C2.09882 43.9109 2.31405 44 2.53846 44H27.9231C28.1475 44 28.3627 43.9109 28.5214 43.7522C28.6801 43.5935 28.7692 43.3783 28.7692 43.1538V41.4615C28.7692 41.2371 28.6801 41.0219 28.5214 40.8632C28.3627 40.7045 28.1475 40.6154 27.9231 40.6154ZM3.38462 15.2308C3.38462 8.69846 8.70015 3.38462 15.2308 3.38462C21.7614 3.38462 27.0769 8.69846 27.0769 15.2308C27.0769 21.7631 21.7614 27.0769 15.2308 27.0769C8.70015 27.0769 3.38462 21.7631 3.38462 15.2308ZM11.8462 30.0689C12.936 30.3177 14.0665 30.4615 15.2308 30.4615C16.3951 30.4615 17.5255 30.3177 18.6154 30.0689V33.8462H11.8462V30.0689ZM6.76923 40.6154V38.9231C6.76923 37.9906 7.52739 37.2308 8.46154 37.2308H22C22.9342 37.2308 23.6923 37.9906 23.6923 38.9231V40.6154H6.76923Z" fill="#AB9AFF"/>
</svg>
