<svg width="128" height="128" viewBox="0 0 128 128" fill="none" xmlns="http://www.w3.org/2000/svg">
<path d="M67 119C67 117.3 65.7 116 64 116C35.3 116 12 92.7 12 64C12 35.3 35.3 12 64 12C92.7 12 116 35.3 116 64C116 65.7 117.3 67 119 67C120.7 67 122 65.7 122 64C122 32 96 6 64 6C32 6 6 32 6 64C6 96 32 122 64 122C65.7 122 67 120.7 67 119Z" fill="white"/>
<path d="M49.605 63.6352C48.2814 64.9588 48.2814 67.1112 49.605 68.4347C50.9285 69.7583 53.0809 69.7583 54.4045 68.4347C56.9713 65.8679 60.3804 64.4508 64.0168 64.4508C67.6399 64.4508 71.049 65.8679 73.6292 68.4347C74.9528 69.7583 77.1052 69.7583 78.4287 68.4347C80.14 66.7235 79.0972 64.2903 78.4287 63.6352C74.5784 59.7849 69.4581 57.6726 64.0168 57.6726C58.5756 57.6726 53.4553 59.7849 49.605 63.6352Z" fill="white"/>
<path d="M39.9927 54.023C38.6691 55.3465 38.6691 57.4989 39.9927 58.8225C41.3162 60.146 43.4686 60.146 44.7922 58.8225C55.3938 48.2208 72.64 48.2208 83.2283 58.8225C84.5518 60.146 86.7043 60.146 88.0278 58.8225C89.8326 57.0176 88.6963 54.678 88.0278 54.023C74.7924 40.7742 53.2414 40.7742 39.9927 54.023Z" fill="white"/>
<ellipse cx="64.6126" cy="74.9357" rx="4.97816" ry="4.97816" transform="rotate(-90 64.6126 74.9357)" fill="white"/>
</svg>
